<svg data-v-fde0c5aa="" xmlns="http://www.w3.org/2000/svg" viewBox="0 0 300 300" class="iconLeft"><!----><defs data-v-fde0c5aa=""><linearGradient data-v-fde0c5aa="" gradientTransform="rotate(25)" id="b52483aa-0935-4cc5-851b-ba69f69dd0f6" x1="0%" y1="0%" x2="100%" y2="0%"><stop data-v-fde0c5aa="" offset="0%" stop-color="#913C00" stop-opacity="1"></stop><stop data-v-fde0c5aa="" offset="100%" stop-color="#D9AD76" stop-opacity="1"></stop></linearGradient></defs><rect data-v-fde0c5aa="" fill="url(#b52483aa-0935-4cc5-851b-ba69f69dd0f6)" x="0" y="0" width="300px" height="300px" class="logo-background-square"></rect><defs data-v-fde0c5aa=""><!----></defs><g data-v-fde0c5aa="" id="bf6a75c0-6ab1-4a84-b122-3f0c0b372137" fill="#ffffff" transform="matrix(1.6797175718750597,0,0,1.6797175718750597,83.36089499149894,134.42061936066847)"><path d="M6.25 12.63L6.19 12.62L2.63 4.72L2.42 11.27L2.47 11.99L3.72 12.32L3.76 12.61L0.36 12.61L0.36 12.35L1.59 11.96L1.79 10.98L2.01 4.73L1.96 4.25L0.93 3.96L0.93 3.64L3.80 3.64L6.71 10.10L6.85 10.16L6.97 10.05L8.96 5.20L9.52 3.64L12.51 3.64L12.55 3.98L11.65 4.16L11.50 4.76L11.68 10.69L11.85 12.09L12.87 12.32L12.89 12.61L9.06 12.61L9.05 12.32L10.02 12.14L10.17 11.55L9.98 5.35L9.91 4.95L9.68 5.00L6.79 12.04L6.25 12.63ZM16.82 12.70L16.82 12.70Q15.87 12.70 15.14 12.30L15.14 12.30L15.14 12.30Q14.41 11.91 14.01 11.22L14.01 11.22L14.01 11.22Q13.60 10.53 13.60 9.67L13.60 9.67L13.60 9.67Q13.60 8.80 14.03 8.09L14.03 8.09L14.03 8.09Q14.45 7.38 15.18 6.97L15.18 6.97L15.18 6.97Q15.91 6.55 16.79 6.55L16.79 6.55L16.79 6.55Q17.73 6.55 18.47 6.94L18.47 6.94L18.47 6.94Q19.21 7.33 19.62 8.02L19.62 8.02L19.62 8.02Q20.03 8.71 20.03 9.56L20.03 9.56L20.03 9.56Q20.03 10.42 19.60 11.14L19.60 11.14L19.60 11.14Q19.17 11.85 18.43 12.28L18.43 12.28L18.43 12.28Q17.69 12.70 16.82 12.70L16.82 12.70ZM16.95 12.32L16.95 12.32Q17.77 12.32 18.12 11.59L18.12 11.59L18.12 11.59Q18.46 10.87 18.46 9.87L18.46 9.87L18.46 9.87Q18.46 9.19 18.25 8.50L18.25 8.50L18.25 8.50Q18.05 7.82 17.64 7.37L17.64 7.37L17.64 7.37Q17.23 6.92 16.65 6.92L16.65 6.92L16.65 6.92Q15.83 6.92 15.50 7.64L15.50 7.64L15.50 7.64Q15.16 8.37 15.16 9.39L15.16 9.39L15.16 9.39Q15.16 10.08 15.36 10.75L15.36 10.75L15.36 10.75Q15.56 11.43 15.97 11.87L15.97 11.87L15.97 11.87Q16.38 12.32 16.95 12.32L16.95 12.32ZM23.86 12.71L23.86 12.71Q23.52 12.71 22.91 12.55L22.91 12.55L22.91 12.55Q22.60 12.46 22.41 12.44L22.41 12.44L21.67 12.46L21.45 12.18L21.63 10.86L21.63 4.91L21.52 4.17L20.62 3.92L20.63 3.64L23.01 3.13L23.16 3.29L23.00 4.55L23.00 7.11L23.13 7.33L24.75 6.63L24.75 6.63Q25.57 6.63 26.21 7.03L26.21 7.03L26.21 7.03Q26.85 7.44 27.21 8.07L27.21 8.07L27.21 8.07Q27.56 8.71 27.56 9.41L27.56 9.41L27.56 9.41Q27.56 10.38 27.04 11.13L27.04 11.13L27.04 11.13Q26.52 11.88 25.68 12.30L25.68 12.30L25.68 12.30Q24.83 12.71 23.86 12.71L23.86 12.71ZM24.21 12.32L24.21 12.32Q24.72 12.32 25.13 11.96L25.13 11.96L25.13 11.96Q25.54 11.61 25.77 11.06L25.77 11.06L25.77 11.06Q26.00 10.51 26.00 9.94L26.00 9.94L26.00 9.94Q26.00 8.75 25.48 8.07L25.48 8.07L25.48 8.07Q24.95 7.40 24.02 7.40L24.02 7.40L23.06 7.83L23.00 8.01L23.00 11.31L23.00 11.31Q23.00 11.73 23.36 12.02L23.36 12.02L23.36 12.02Q23.72 12.32 24.21 12.32L24.21 12.32ZM30.21 5.03L30.21 5.03Q29.86 5.03 29.61 4.81L29.61 4.81L29.61 4.81Q29.37 4.59 29.37 4.28L29.37 4.28L29.37 4.28Q29.37 3.96 29.62 3.73L29.62 3.73L29.62 3.73Q29.87 3.50 30.21 3.50L30.21 3.50L30.21 3.50Q30.57 3.50 30.82 3.73L30.82 3.73L30.82 3.73Q31.08 3.96 31.08 4.28L31.08 4.28L31.08 4.28Q31.08 4.59 30.82 4.81L30.82 4.81L30.82 4.81Q30.57 5.03 30.21 5.03L30.21 5.03ZM28.59 12.61L28.59 12.33L29.53 12.10L29.64 10.90L29.64 8.68L29.53 7.71L28.57 7.45L28.57 7.18L31.01 6.55L31.17 6.73L31.06 7.55L31.06 10.90L31.14 12.10L32.05 12.33L32.05 12.61L28.59 12.61ZM32.68 12.61L32.68 12.33L33.62 12.10L33.73 10.90L33.73 4.91L33.63 4.17L32.72 3.92L32.73 3.64L35.14 3.13L35.29 3.29L35.14 4.55L35.14 10.90L35.23 12.10L36.18 12.33L36.18 12.61L32.68 12.61ZM38.58 5.03L38.58 5.03Q38.23 5.03 37.98 4.81L37.98 4.81L37.98 4.81Q37.73 4.59 37.73 4.28L37.73 4.28L37.73 4.28Q37.73 3.96 37.99 3.73L37.99 3.73L37.99 3.73Q38.24 3.50 38.58 3.50L38.58 3.50L38.58 3.50Q38.94 3.50 39.19 3.73L39.19 3.73L39.19 3.73Q39.44 3.96 39.44 4.28L39.44 4.28L39.44 4.28Q39.44 4.59 39.19 4.81L39.19 4.81L39.19 4.81Q38.94 5.03 38.58 5.03L38.58 5.03ZM36.96 12.61L36.96 12.33L37.90 12.10L38.01 10.90L38.01 8.68L37.90 7.71L36.94 7.45L36.94 7.18L39.38 6.55L39.54 6.73L39.43 7.55L39.43 10.90L39.51 12.10L40.41 12.33L40.41 12.61L36.96 12.61ZM43.63 12.70L43.63 12.70Q42.92 12.70 42.44 12.31L42.44 12.31L42.44 12.31Q41.97 11.92 41.97 11.01L41.97 11.01L41.97 7.23L40.96 7.23L40.93 6.90L42.04 6.18L42.93 4.76L43.38 4.76L43.38 6.77L45.21 6.77L45.27 6.86L45.04 7.23L43.38 7.23L43.38 10.86L43.38 10.86Q43.38 11.42 43.61 11.68L43.61 11.68L43.61 11.68Q43.83 11.95 44.34 11.95L44.34 11.95L45.17 11.63L45.24 11.77L45.16 11.96L43.63 12.70ZM47.21 15.42L45.57 15.01L46.35 13.74L47.39 14.56L47.39 14.56Q47.73 14.37 48.12 13.81L48.12 13.81L48.12 13.81Q48.51 13.25 48.81 12.43L48.81 12.43L46.43 7.48L45.55 7.08L45.55 6.77L48.81 6.77L48.77 7.08L47.99 7.38L49.60 10.96L50.87 8.05L51.02 7.49L50.07 7.08L50.07 6.77L52.76 6.77L52.75 7.08L51.68 7.53L49.37 12.43L49.37 12.43Q49.03 13.18 48.77 13.64L48.77 13.64L48.77 13.64Q48.52 14.10 48.17 14.56L48.17 14.56L47.21 15.42ZM62.26 12.63L62.21 12.62L58.64 4.72L58.43 11.27L58.49 11.99L59.73 12.32L59.77 12.61L56.37 12.61L56.37 12.35L57.60 11.96L57.80 10.98L58.02 4.73L57.97 4.25L56.94 3.96L56.94 3.64L59.81 3.64L62.73 10.10L62.86 10.16L62.99 10.05L64.97 5.20L65.53 3.64L68.52 3.64L68.56 3.98L67.66 4.16L67.51 4.76L67.69 10.69L67.87 12.09L68.88 12.32L68.91 12.61L65.08 12.61L65.06 12.32L66.04 12.14L66.19 11.55L65.99 5.35L65.93 4.95L65.69 5.00L62.81 12.04L62.26 12.63ZM71.53 12.74L71.53 12.74Q71.04 12.74 70.63 12.52L70.63 12.52L70.63 12.52Q70.22 12.30 69.98 11.94L69.98 11.94L69.98 11.94Q69.74 11.57 69.74 11.17L69.74 11.17L69.74 11.17Q69.74 10.80 69.97 10.51L69.97 10.51L69.97 10.51Q70.21 10.23 70.48 10.14L70.48 10.14L73.10 9.21L73.20 8.79L73.20 8.42L73.20 8.42Q73.20 7.83 72.97 7.50L72.97 7.50L72.97 7.50Q72.75 7.16 72.24 6.97L72.24 6.97L72.24 6.97Q71.65 7.07 71.42 7.25L71.42 7.25L71.42 7.25Q71.18 7.44 71.18 7.72L71.18 7.72L71.18 7.72Q71.18 7.90 71.24 8.10L71.24 8.10L71.24 8.10Q71.30 8.30 71.44 8.61L71.44 8.61L70.42 9.01L70.03 8.29L70.16 7.55L70.16 7.55Q70.51 7.26 71.27 6.95L71.27 6.95L71.27 6.95Q72.04 6.63 72.75 6.63L72.75 6.63L72.75 6.63Q73.23 6.63 73.64 6.88L73.64 6.88L73.64 6.88Q74.06 7.12 74.31 7.55L74.31 7.55L74.31 7.55Q74.57 7.98 74.57 8.53L74.57 8.53L74.57 11.31L74.91 11.83L75.51 11.70L75.66 12.00L74.44 12.74L74.44 12.74Q73.99 12.59 73.67 12.39L73.67 12.39L73.67 12.39Q73.35 12.18 73.23 11.83L73.23 11.83L73.23 11.83Q72.93 12.17 72.49 12.46L72.49 12.46L72.49 12.46Q72.05 12.74 71.53 12.74L71.53 12.74ZM72.32 12.09L73.20 11.51L73.20 9.53L71.98 9.99L71.98 9.99Q71.63 10.13 71.43 10.41L71.43 10.41L71.43 10.41Q71.23 10.69 71.23 11.03L71.23 11.03L71.23 11.03Q71.23 11.46 71.59 11.77L71.59 11.77L71.59 11.77Q71.94 12.09 72.32 12.09L72.32 12.09ZM76.22 12.61L76.22 12.33L77.16 12.10L77.27 10.90L77.27 8.75L77.16 7.78L76.21 7.52L76.21 7.25L78.60 6.62L78.74 6.79L78.63 7.98L78.74 8.04L78.74 8.04Q79.02 7.49 79.50 7.06L79.50 7.06L79.50 7.06Q79.97 6.63 80.51 6.63L80.51 6.63L80.51 6.63Q80.79 6.63 81.03 6.71L81.03 6.71L81.03 6.71Q81.27 6.79 81.38 6.92L81.38 6.92L81.48 7.40L80.86 8.22L80.29 7.88L80.29 7.88Q80.16 7.78 80.04 7.74L80.04 7.74L80.04 7.74Q79.91 7.70 79.71 7.70L79.71 7.70L79.71 7.70Q79.41 7.70 79.16 7.92L79.16 7.92L79.16 7.92Q78.91 8.15 78.77 8.46L78.77 8.46L78.77 8.46Q78.63 8.76 78.63 8.94L78.63 8.94L78.63 10.90L78.72 12.10L79.83 12.33L79.83 12.61L76.22 12.61ZM88.29 12.67L88.29 12.67Q87.69 12.67 87.21 12.47L87.21 12.47L87.21 12.47Q86.72 12.26 86.45 11.99L86.45 11.99L84.55 9.95L84.22 9.72L84.22 10.87L84.33 12.09L85.23 12.32L85.23 12.61L81.79 12.61L81.79 12.32L82.73 12.09L82.84 10.87L82.84 4.91L82.74 4.17L81.83 3.92L81.84 3.64L84.23 3.13L84.37 3.29L84.23 4.55L84.22 9.53L85.48 8.67L86.86 7.34L85.98 7.07L86.01 6.77L89.00 6.77L88.99 7.05L87.71 7.41L85.50 9.16L87.90 11.66L87.90 11.66Q88.31 12.04 88.68 12.17L88.68 12.17L88.68 12.17Q89.06 12.30 89.46 12.32L89.46 12.32L89.47 12.55L88.29 12.67ZM92.39 12.71L92.39 12.71Q91.60 12.71 90.92 12.36L90.92 12.36L90.92 12.36Q90.25 12.00 89.85 11.35L89.85 11.35L89.85 11.35Q89.46 10.71 89.46 9.88L89.46 9.88L89.46 9.88Q89.46 8.85 89.89 8.11L89.89 8.11L89.89 8.11Q90.33 7.37 91.02 7L91.02 7L91.02 7Q91.71 6.63 92.44 6.63L92.44 6.63L92.44 6.63Q93.69 6.63 94.22 7.24L94.22 7.24L94.22 7.24Q94.75 7.85 94.75 8.83L94.75 8.83L94.58 9.15L90.81 9.15L90.81 9.21L90.81 9.21Q90.81 10.12 91.14 10.71L91.14 10.71L91.14 10.71Q91.48 11.29 91.99 11.57L91.99 11.57L91.99 11.57Q92.50 11.84 93.02 11.84L93.02 11.84L94.58 11.10L94.72 11.53L93.41 12.51L93.41 12.51Q92.89 12.71 92.39 12.71L92.39 12.71ZM90.86 8.78L93.17 8.78L93.34 8.41L93.34 8.41Q93.34 8.13 93.22 7.81L93.22 7.81L93.22 7.81Q93.11 7.48 92.86 7.25L92.86 7.25L92.86 7.25Q92.61 7.01 92.24 7.01L92.24 7.01L92.24 7.01Q91.75 7.01 91.44 7.36L91.44 7.36L91.44 7.36Q91.14 7.70 90.99 8.11L90.99 8.11L90.99 8.11Q90.85 8.53 90.86 8.71L90.86 8.71L90.86 8.78ZM98.19 12.70L98.19 12.70Q97.48 12.70 97.01 12.31L97.01 12.31L97.01 12.31Q96.54 11.92 96.54 11.01L96.54 11.01L96.54 7.23L95.53 7.23L95.50 6.90L96.61 6.18L97.49 4.76L97.95 4.76L97.95 6.77L99.78 6.77L99.83 6.86L99.60 7.23L97.95 7.23L97.95 10.86L97.95 10.86Q97.95 11.42 98.17 11.68L98.17 11.68L98.17 11.68Q98.40 11.95 98.90 11.95L98.90 11.95L99.74 11.63L99.80 11.77L99.72 11.96L98.19 12.70ZM102.61 12.74L100.93 12.48L100.76 10.99L101.09 10.99L101.73 11.98L101.73 11.98Q102.22 12.32 102.79 12.32L102.79 12.32L102.79 12.32Q103.25 12.32 103.53 12.07L103.53 12.07L103.53 12.07Q103.81 11.83 103.81 11.42L103.81 11.42L103.81 11.42Q103.81 10.96 103.50 10.71L103.50 10.71L103.50 10.71Q103.20 10.46 102.55 10.16L102.55 10.16L102.09 9.93L102.09 9.93Q101.40 9.56 101.08 9.24L101.08 9.24L101.08 9.24Q100.75 8.93 100.75 8.39L100.75 8.39L100.75 8.39Q100.75 7.85 101.10 7.44L101.10 7.44L101.10 7.44Q101.46 7.04 102.02 6.84L102.02 6.84L102.02 6.84Q102.58 6.63 103.17 6.63L103.17 6.63L104.71 6.85L104.95 8.31L104.62 8.31L104.07 7.42L104.07 7.42Q103.67 7.05 103.11 7.05L103.11 7.05L103.11 7.05Q102.63 7.05 102.35 7.27L102.35 7.27L102.35 7.27Q102.07 7.49 102.07 7.89L102.07 7.89L102.07 7.89Q102.07 8.23 102.40 8.48L102.40 8.48L102.40 8.48Q102.72 8.72 103.08 8.90L103.08 8.90L103.08 8.90Q103.44 9.08 103.55 9.13L103.55 9.13L103.55 9.13Q104.11 9.42 104.41 9.60L104.41 9.60L104.41 9.60Q104.70 9.79 104.93 10.11L104.93 10.11L104.93 10.11Q105.16 10.43 105.16 10.88L105.16 10.88L105.16 10.88Q105.16 11.76 104.43 12.25L104.43 12.25L104.43 12.25Q103.69 12.74 102.61 12.74L102.61 12.74Z"></path></g><defs data-v-fde0c5aa=""><!----></defs><g data-v-fde0c5aa="" id="f166a2eb-6a94-4127-a529-f3b2492203e0" stroke="none" fill="#ffffff" transform="matrix(0.9676747919188285,0,0,0.9676747919188285,40,134.51720332929875)"><path d="M15.965 16.258l.707-.707 10.39 10.39-.707.707z"></path><path d="M4.935 26.357L26.018 5.274l.707.707L5.642 27.065z"></path><path d="M31 1v4.194h-4.194V1H31m1-1h-6.194v6.194H32V0zM31 26.806V31h-4.194v-4.194H31m1-1h-6.194V32H32v-6.194zM5.194 26.806V31H1v-4.194h4.194m1-1H0V32h6.194v-6.194z"></path></g><!----></svg>